<?xml version="1.0" encoding="utf-8"?>
<!-- Svg Vector Icons : http://www.onlinewebfonts.com/icon -->
<!DOCTYPE svg PUBLIC "-//W3C//DTD SVG 1.1//EN" "http://www.w3.org/Graphics/SVG/1.1/DTD/svg11.dtd">
<svg version="1.1" xmlns="http://www.w3.org/2000/svg" xmlns:xlink="http://www.w3.org/1999/xlink" x="0px" y="0px" viewBox="0 0 256 256" enable-background="new 0 0 256 256" xml:space="preserve">
<metadata> Svg Vector Icons : http://www.onlinewebfonts.com/icon </metadata>
<g><g><g><path fill="#4a4a4a" d="M88.5,10.3c-23.3,2.9-42.4,17.5-49,37.5c-3.3,10.2-3.2,23.8,0.2,33c1.6,4.4,4.5,9.1,7.4,12.3l2.4,2.6l-1.9,4c-5.4,11.5-6.1,16.4-5.6,41.8c0.5,36.2,2.4,59.1,6.3,78.8c1.9,9.7,2.7,12.5,4.4,16.2c2.7,6.2,6.4,9.5,11,9.4c3,0,5.1-1.1,7-3.7c2.6-3.6,3.3-7.3,4.6-23.9c1.4-18.3,5.2-57.1,6.1-61.7c0.9-4.8,1.8-5.4,5.5-3.7c4.1,1.9,10,8.1,12.8,13.2c1.7,3.2,1.8,3.8,4.3,33.5c2.6,30.6,3.3,34.6,7.1,40.4c4.4,6.5,11.8,8,16.5,3.3c3.3-3.3,4-8.4,4.5-30.9c0.5-23,1.2-33,2.7-38.3c0.4-1.5,0.8-1.8,2.2-2.1c1-0.1,1.8-0.2,1.8-0.1c0,0,0.4,3.3,0.9,7.3c0.9,7.9,4.7,36.6,5.8,44.2c1.5,9.8,4.4,17.1,7.9,20c2.1,1.7,5.8,2.9,7.9,2.5c5.3-1,7.7-4.9,9.2-14.7c0.4-2.8,2-20.9,3.4-40.1c1.4-19.2,2.7-35.9,2.9-37l0.3-2l3.7-0.3c7.6-0.7,16.7-4.3,22.5-8.9c7.8-6.2,13.1-16.4,15-29.3c1.2-7.7,0.6-22.1-1.4-35c-2.4-15.6-3.7-18.8-7.4-18.8c-1,0-2.2,0.2-2.6,0.5c-0.5,0.2-4.9,5.3-9.8,11.2L188,82.2l-3.3-0.6c-6.1-1.2-12-1.3-17.6-0.5c-2.9,0.5-5.3,0.8-5.3,0.7c-0.1-0.1-3-4.9-6.5-10.6c-3.5-5.7-6.6-10.7-7-11c-1.1-0.9-4.2-1.1-5.5-0.4c-1.6,0.9-4.4,5.1-6.5,10c-1,2.3-1.8,4.1-1.9,4.2c0,0-2-0.8-4.4-1.9c-6.2-2.9-12.1-5.1-17.2-6.5c-11.3-3.1-25.6-1.5-35.8,3.9c-4.6,2.5-5.4,2.4-8.1-0.4c-2.6-2.7-3.1-5.7-1.7-10.5c1.5-5.2,4-9.1,8.8-13.9c9.2-9.2,16.6-11.6,30.6-10.1c9.5,1,14.7,3,20.9,7.9c5.4,4.4,7.4,5.3,10.8,5.3c2.6,0,3.1-0.1,4.4-1.4c0.9-0.9,1.6-2.3,2-3.7c0.5-2,0.4-2.8-0.4-5.6c-1.3-4.1-3.1-7.1-6.9-10.8c-7.5-7.5-18-12.9-29.6-15.2C102.3,10.1,93.5,9.7,88.5,10.3z M109,21.5c4.7,1.2,13.1,5,15.6,7l1.2,1l-2.2-0.9c-9-3.7-25.8-5.3-34.2-3.1c-7.9,2.1-14.8,6.3-21,12.7c-8.3,8.7-12,17-11.6,26c0.2,5.4,1.4,8,5.2,11.9c3.2,3.1,7.9,5.7,11.4,6c2,0.1,2.5,0,4.5-1.6c5.1-3.9,10.8-5.8,19.5-6.5c7.2-0.6,13.6,0.7,23,4.6c3.4,1.4,10.6,4.8,11.1,5.2c0.1,0-0.2,2.7-0.7,5.8c-1.1,7.9-0.7,23.4,0.7,29.9c3.7,16.9,13.6,27.2,30,31.2c3.8,1,5.1,1.4,5.1,2.1c0,3.2-5.4,71.1-6,75.3c-1.1,7.6-1.3,8-2.6,5.2c-0.6-1.3-1.4-4-2-6.2c-0.9-3.9-5.5-37.2-7-50.3c-1.2-10.4-1.8-12-5.7-14c-1.7-0.9-2.5-1-6.4-0.8c-7.3,0.4-10.2,2.7-12.1,9.8c-1.5,5.5-1.9,10.2-2.5,26.9c-0.8,24-1.3,35-1.8,36.2l-0.4,1.2l-1.1-1.5c-2.5-3.6-3.3-8.6-5.5-35.1c-1.4-17.1-2.5-29.3-2.9-31.7c-0.8-4.9-5.8-12.3-12.1-18.3c-8.5-8-17.3-9.7-22.6-4.4c-2.1,2.1-3.2,4.2-4.2,8.1c-0.8,3.1-4.9,44.1-6.5,65.1c-0.6,7.2-1.3,14-1.6,15.1l-0.6,1.9l-1.1-2c-3.7-7.2-7.6-32.1-9.2-59.1c-0.8-12.4-1.3-49.1-0.9-54c0.7-7.5,3-14,7.9-22.6c2.1-3.6,1.8-4.4-3.3-9.3c-4.9-4.9-6.9-8-8.4-13.6c-1.9-7-1.8-16.1,0.4-23.3c4.9-15.8,19-27.4,37.7-31C91.8,19.5,103,20,109,21.5z M156.2,91.1c1.4,1.7,3.5,1.8,8.6,0.6c6.1-1.5,12.1-1.6,18.9-0.2c6.7,1.3,7.6,1.3,9.5-0.3c0.8-0.7,4.1-4.5,7.4-8.5c3.3-3.9,6-6.9,6.1-6.5c5.5,32.3,1.9,51.4-11.6,60.4c-8.8,5.9-22.8,7.5-33.6,4.1c-10.2-3.3-16.5-10.1-19.4-20.9c-2.8-10.6-2.4-27.4,1.1-39.4c2.3-7.9,1.5-8.1,7.4,1.5C153.2,86.5,155.8,90.6,156.2,91.1z"/><path fill="#4a4a4a" d="M158.8,104.4c-4.3,2.6-4.9,8.2-1.2,11.6c1.7,1.6,2.2,1.8,4.5,1.8c3.1,0,5.4-1.3,6.7-3.8c1.1-2.2,0.9-5.6-0.5-7.5C166.3,103.6,161.8,102.6,158.8,104.4z"/><path fill="#4a4a4a" d="M183.7,104.3c-6.7,3.3-4.1,13.6,3.4,13.6c4.1,0,7.2-3.1,7.2-7.3c0-3.9-3.3-7.2-7.2-7.2C186.1,103.5,184.6,103.9,183.7,104.3z"/></g></g></g>
</svg>